<svg width="37" height="30" viewBox="0 0 37 30" fill="none" xmlns="http://www.w3.org/2000/svg">
<path d="M7.5809 15.8923L19.1347 4.21C19.9153 3.42414 20.9714 2.98299 22.0724 2.98299C23.1733 2.98299 24.2295 3.42414 25.01 4.21L25.9079 5.11885L27.7078 3.297L26.8099 2.384C25.5509 1.11233 23.8449 0.398144 22.0662 0.398144C20.2876 0.398144 18.5815 1.11233 17.3225 2.384L5.77691 14.0704L7.5809 15.8923Z" fill="#E9E9E9"/>
<path d="M23.0051 8.05705L21.2052 6.2352L9.6473 17.9341C8.86656 18.7238 7.80786 19.1672 6.7041 19.1668C5.60035 19.1664 4.54195 18.7222 3.76175 17.932C2.98155 17.1417 2.54346 16.0701 2.54384 14.9529C2.54423 13.8357 2.98306 12.7644 3.7638 11.9747L13.735 1.88185L11.9351 0.0600014L1.9639 10.1528C1.32913 10.7804 0.823702 11.5293 0.476884 12.356C0.130066 13.1827 -0.0512441 14.0709 -0.0565439 14.9691C-0.0618436 15.8672 0.108972 16.7575 0.446009 17.5884C0.783046 18.4192 1.2796 19.1742 1.90692 19.8094C2.53424 20.4446 3.27985 20.9476 4.10056 21.2891C4.92126 21.6306 5.80076 21.8039 6.6881 21.7989C7.57544 21.7939 8.45298 21.6108 9.2699 21.2601C10.0868 20.9094 10.8269 20.3981 11.4472 19.7559L23.0051 8.05705ZM34.5097 10.1528C33.2501 8.88214 31.5443 8.16866 29.766 8.16866C27.9877 8.16866 26.2819 8.88214 25.0223 10.1528L13.4644 21.8517L15.2643 23.6735L26.8222 11.9747C27.4044 11.3865 28.1458 10.9862 28.9526 10.8243C29.7595 10.6624 30.5957 10.7461 31.3555 11.065C32.1154 11.3838 32.7649 11.9234 33.2219 12.6157C33.679 13.3079 33.9231 14.1218 33.9234 14.9544C33.9255 15.509 33.8178 16.0585 33.6065 16.5703C33.3952 17.0821 33.0847 17.5458 32.6934 17.9341L22.7345 28.0268L24.5385 29.8487L34.5097 19.7559C35.7661 18.4815 36.4716 16.7547 36.4716 14.9544C36.4716 13.154 35.7661 11.4272 34.5097 10.1528Z" fill="#E9E9E9"/>
<path d="M28.8927 14.0164L17.3348 25.7111C16.5532 26.4998 15.4946 26.9426 14.391 26.9426C13.2874 26.9426 12.2288 26.4998 11.4472 25.7111L10.5493 24.7981L8.7494 26.62L9.64731 27.533C10.9069 28.8037 12.6127 29.5171 14.391 29.5171C16.1693 29.5171 17.8751 28.8037 19.1347 27.533L30.6926 15.83L28.8927 14.0164Z" fill="#E9E9E9"/>
</svg>
