<svg width="161" height="17" viewBox="0 0 161 17" fill="none" xmlns="http://www.w3.org/2000/svg">
<path d="M3.027 11.1001C3.14525 11.794 3.51882 12.4167 4.0725 12.8431C4.70766 13.2878 5.47001 13.5081 6.2414 13.4697C6.97566 13.5171 7.70254 13.2978 8.2914 12.8514C8.52612 12.6537 8.71314 12.4044 8.8382 12.1225C8.96325 11.8405 9.02304 11.5334 9.013 11.2246C9.02126 10.9356 8.95483 10.6495 8.8203 10.3946C8.68554 10.1631 8.50046 9.96587 8.2791 9.8177C8.01508 9.64027 7.7281 9.50061 7.4263 9.4027L6.2865 9.0541L5.2 8.7553C4.59767 8.59376 4.01156 8.37563 3.44931 8.10375C2.9666 7.87271 2.52033 7.57064 2.125 7.20735C1.77241 6.87597 1.49298 6.47292 1.305 6.0246C1.10447 5.5314 1.00676 5.00157 1.01801 4.46835C1.01219 3.87756 1.13833 3.29308 1.387 2.75855C1.62673 2.23836 1.98169 1.78109 2.42431 1.42225C2.9112 1.0278 3.46775 0.730639 4.06431 0.546602C4.76143 0.323013 5.48971 0.215101 6.2209 0.227052C7.72697 0.227052 8.92007 0.586719 9.8002 1.30605C10.2364 1.66161 10.5982 2.10167 10.8643 2.60049C11.1304 3.0993 11.2955 3.64684 11.35 4.21105L8.89 4.4144C8.76827 3.84309 8.45187 3.33332 7.9962 2.97435C7.4438 2.60057 6.7858 2.41985 6.1225 2.45975C5.4966 2.42251 4.87747 2.60743 4.37181 2.98265C4.16985 3.14197 4.00755 3.34694 3.89791 3.58115C3.78826 3.81536 3.73432 4.0723 3.7404 4.3314C3.7303 4.60761 3.79404 4.88146 3.9249 5.12405C4.05679 5.34798 4.23774 5.53825 4.4538 5.68015C4.71716 5.85355 5.00089 5.99296 5.2984 6.09515C5.6305 6.21965 6.0077 6.35245 6.4259 6.4894L7.4673 6.81725C8.1151 7.02475 8.70141 7.24055 9.22621 7.46465C9.70882 7.67243 10.158 7.9522 10.5587 8.29465C10.9199 8.60412 11.2084 8.99115 11.4033 9.4276C11.6142 9.94264 11.7149 10.4971 11.6985 11.0544C11.7053 11.7058 11.5651 12.3503 11.2885 12.9385C11.0217 13.5035 10.632 14.0001 10.1487 14.391C9.6293 14.8067 9.03858 15.1218 8.4062 15.3206C7.68569 15.5474 6.9344 15.6581 6.1799 15.6485C4.84555 15.6988 3.5292 15.3243 2.4161 14.5778C1.8965 14.1971 1.46136 13.7106 1.13866 13.1496C0.815963 12.5885 0.612857 11.9653 0.542404 11.32L3.027 11.1001ZM22.0715 0.268552C23.1028 0.255042 24.1267 0.446808 25.085 0.832951C25.9602 1.18776 26.7501 1.72834 27.4015 2.41825C28.0551 3.12172 28.5614 3.95177 28.8898 4.85845C29.2504 5.8551 29.4296 6.90963 29.4187 7.97095C29.4334 9.05175 29.2427 10.1253 28.857 11.1333C28.4974 12.0493 27.9544 12.8802 27.2621 13.5735L29.2137 15.885V16.603H26.7537L25.3884 14.9139C24.8938 15.1534 24.3757 15.3398 23.8427 15.47C23.2673 15.5945 22.6804 15.6557 22.092 15.6526C21.0489 15.659 20.0149 15.4558 19.0498 15.055C18.1795 14.6979 17.3952 14.1559 16.7497 13.4656C16.104 12.7653 15.606 11.9392 15.286 11.0378C14.9324 10.051 14.7561 9.00815 14.7653 7.9585C14.755 6.90201 14.9314 5.85216 15.286 4.85845C15.608 3.95393 16.1104 3.12614 16.762 2.42655C17.4117 1.73647 18.1984 1.19337 19.0703 0.832951C20.023 0.442226 21.0438 0.250257 22.0715 0.268552ZM22.051 2.49295C21.3741 2.48239 20.7033 2.62413 20.0871 2.90795C19.521 3.17267 19.0208 3.56268 18.6234 4.0492C18.2102 4.55936 17.8983 5.14559 17.705 5.7756C17.4911 6.47706 17.386 7.20784 17.3934 7.9419C17.3862 8.68232 17.4956 9.41918 17.7173 10.1248C17.9159 10.7605 18.2302 11.3531 18.6439 11.872C19.0406 12.3644 19.5406 12.7613 20.1076 13.034C20.7231 13.3198 21.3944 13.4616 22.0715 13.449C22.748 13.4556 23.418 13.314 24.0354 13.034C24.6004 12.7749 25.1007 12.3905 25.4991 11.9093C25.9177 11.3984 26.2325 10.8089 26.4257 10.1746C26.65 9.45238 26.7607 8.69894 26.7537 7.9419C26.76 7.19579 26.6493 6.4534 26.4257 5.7424C26.2297 5.11184 25.9151 4.5256 25.4991 4.016C25.0965 3.53473 24.5939 3.1493 24.0272 2.8872C23.4048 2.61133 22.7303 2.47676 22.051 2.49295ZM39.0824 13.5527C39.5382 13.5811 39.9946 13.5081 40.4196 13.3389C40.8446 13.1697 41.2278 12.9084 41.5424 12.5733C42.1246 11.9231 42.4157 10.9244 42.4157 9.577V0.554901H44.97V9.66C44.9902 10.5928 44.8515 11.5222 44.56 12.4073C44.3245 13.1163 43.9269 13.759 43.3997 14.2831C42.8766 14.7843 42.2426 15.1515 41.5506 15.3538C39.9408 15.8044 38.2404 15.8044 36.6306 15.3538C35.9411 15.1513 35.3097 14.7841 34.7897 14.2831C34.2638 13.7579 33.8664 13.1156 33.6294 12.4073C33.3381 11.5221 33.1994 10.5928 33.2194 9.66V0.554901H35.7819V9.577C35.7819 10.9216 36.0744 11.9204 36.6593 12.5733C36.9694 12.9039 37.3466 13.1626 37.7649 13.3317C38.1831 13.5007 38.6326 13.5761 39.0824 13.5527ZM47.5284 14.64L52.7149 0.571502H56.5607L61.6898 14.64V15.3455H59.1683L57.7005 11.1208H51.3742L49.89 15.3455H47.512L47.5284 14.64ZM52.145 8.913H56.9707L56.1753 6.5641C55.8637 5.64695 55.6136 4.9041 55.4209 4.31895C55.2282 3.7338 55.0642 3.2358 54.9125 2.7959H54.2852L54.0392 3.49725C53.9572 3.72965 53.867 3.9911 53.7645 4.27745C53.662 4.5638 53.5513 4.8958 53.4283 5.2693C53.3053 5.6428 53.1577 6.07025 52.9814 6.5641L52.145 8.913ZM76.0152 15.3455H73.5552L69.0985 9.5355H67.4585V15.3455H64.9329V0.554901H69.6766C70.3873 0.553637 71.0971 0.604958 71.8004 0.708452C72.4539 0.804368 73.0776 1.04837 73.6249 1.42225C74.7784 2.19138 75.3551 3.35062 75.3551 4.89995C75.3666 5.5004 75.265 6.09756 75.0558 6.65955C74.8786 7.13272 74.6127 7.56675 74.2727 7.93775C73.9484 8.28643 73.5669 8.57566 73.1452 8.79265C72.7225 9.01142 72.275 9.17726 71.8127 9.2865L76.0152 14.64V15.3455ZM67.4503 7.3111H69.6684C70.4726 7.35444 71.2726 7.16746 71.9767 6.7716C72.2603 6.57978 72.4881 6.31476 72.6366 6.00395C72.7851 5.69314 72.8488 5.34782 72.8213 5.0037C72.8548 4.66216 72.7922 4.31799 72.6405 4.01101C72.4889 3.70402 72.2545 3.44677 71.9644 3.269C71.2526 2.91081 70.4624 2.74227 69.6684 2.7793H67.4503V7.3111ZM79.2706 0.554901H88.7334V2.8208H81.7634V6.69275H88.2332V8.91715H81.7757V13.0672H88.8769V15.3455H79.2706V0.554901ZM94.5349 11.1001C94.6531 11.794 95.0267 12.4167 95.5804 12.8431C96.2158 13.2872 96.978 13.5074 97.7493 13.4697C98.4836 13.5171 99.2104 13.2978 99.7993 12.8514C100.034 12.6537 100.221 12.4044 100.346 12.1225C100.471 11.8405 100.531 11.5334 100.521 11.2246C100.529 10.9356 100.463 10.6495 100.328 10.3946C100.193 10.1631 100.008 9.96587 99.787 9.8177C99.523 9.64027 99.236 9.50061 98.9342 9.4027L97.7944 9.0541L96.6956 8.747C96.0933 8.58546 95.5071 8.36733 94.9449 8.09545C94.4622 7.86441 94.0159 7.56234 93.6206 7.19905C93.268 6.86767 92.9886 6.46462 92.8006 6.0163C92.598 5.49397 92.5009 4.93584 92.515 4.37488C92.529 3.81391 92.654 3.2615 92.8826 2.75025C93.1237 2.23091 93.4784 1.77393 93.9199 1.41395C94.4068 1.0195 94.9633 0.722338 95.5599 0.538302C96.257 0.314713 96.9853 0.206801 97.7165 0.218752C99.2226 0.218752 100.417 0.578418 101.3 1.29775C101.736 1.65352 102.097 2.09372 102.362 2.59254C102.627 3.09137 102.792 3.6388 102.846 4.20275L100.386 4.4061C100.266 3.83597 99.9526 3.32636 99.5 2.96605C98.9478 2.59171 98.2896 2.41094 97.6263 2.45145C97.0004 2.41421 96.3812 2.59913 95.8756 2.97435C95.6744 3.1341 95.5129 3.33926 95.404 3.57344C95.295 3.80763 95.2417 4.06435 95.2483 4.3231C95.2369 4.59893 95.2993 4.87275 95.4287 5.11575C95.5606 5.33968 95.7415 5.52995 95.9576 5.67185C96.2209 5.84525 96.5047 5.98466 96.8022 6.08685C97.1343 6.21135 97.5115 6.34415 97.9338 6.4811L98.9711 6.80895C99.6216 7.01645 100.208 7.23225 100.73 7.45635C101.213 7.66413 101.662 7.9439 102.062 8.28635C102.424 8.59582 102.712 8.98285 102.907 9.4193C103.118 9.93434 103.219 10.4888 103.202 11.0461C103.209 11.6975 103.069 12.342 102.792 12.9302C102.527 13.4961 102.137 13.9929 101.652 14.3827C101.132 14.7951 100.542 15.1073 99.91 15.304C99.1881 15.5308 98.4354 15.6414 97.6796 15.6319C96.3453 15.6816 95.0291 15.3072 93.9158 14.5612C93.3996 14.1816 92.9672 13.6973 92.646 13.1393C92.3248 12.5813 92.1219 11.9617 92.0503 11.32L94.5349 11.1001ZM106.843 0.554901H112.173C113.018 0.532832 113.86 0.652018 114.666 0.907652C115.278 1.09876 115.839 1.42956 116.306 1.8746C116.716 2.27824 117.023 2.77673 117.2 3.3271C117.388 3.9083 117.48 4.51669 117.474 5.1282C117.491 5.81727 117.363 6.50203 117.097 7.1368C116.858 7.69185 116.484 8.17705 116.011 8.5478C115.493 8.93584 114.905 9.21778 114.28 9.3778C113.529 9.57288 112.756 9.66637 111.98 9.65585H109.397V15.3455H106.851L106.843 0.554901ZM109.389 7.4356H111.829C112.241 7.43871 112.653 7.40118 113.059 7.32355C113.404 7.25817 113.734 7.13023 114.034 6.9459C114.311 6.77101 114.536 6.52457 114.686 6.2321C114.851 5.88873 114.932 5.5099 114.92 5.1282C114.932 4.73712 114.852 4.34873 114.686 3.99525C114.54 3.69902 114.318 3.44814 114.043 3.269C113.748 3.08337 113.421 2.95528 113.079 2.89135C112.674 2.81312 112.262 2.77558 111.849 2.7793H109.369L109.389 7.4356ZM118.18 14.64L123.37 0.571502H127.216L132.341 14.64V15.3455H129.84L128.376 11.1208H122.025L120.562 15.3455H118.18V14.64ZM122.8 8.913H127.622L126.826 6.5641C126.515 5.64695 126.265 4.9041 126.076 4.31895L125.568 2.7959H124.92L124.674 3.49725C124.592 3.72965 124.502 3.9911 124.399 4.27745C124.297 4.5638 124.186 4.8958 124.063 5.2693C123.94 5.6428 123.792 6.07025 123.616 6.5641L122.8 8.913ZM147.847 11.4321C147.616 12.0107 147.313 12.5573 146.945 13.0589C146.564 13.573 146.106 14.0239 145.588 14.3952C145.026 14.7946 144.405 15.1 143.747 15.2999C142.992 15.5288 142.207 15.6407 141.418 15.6319C140.4 15.6475 139.39 15.4511 138.45 15.055C137.589 14.6915 136.814 14.1485 136.174 13.4614C135.532 12.7586 135.037 11.9313 134.719 11.0295C134.371 10.0486 134.198 9.01309 134.206 7.97095C134.197 6.92878 134.371 5.89321 134.719 4.9124C135.038 4.00654 135.536 3.17614 136.183 2.4722C136.826 1.77778 137.605 1.22658 138.47 0.853702C139.413 0.452343 140.428 0.253105 141.451 0.268552C142.874 0.21735 144.277 0.613107 145.469 1.4015C146.528 2.13191 147.331 3.18405 147.761 4.4061L145.174 4.9207C144.852 4.20192 144.341 3.58619 143.698 3.14035C143.018 2.69465 142.22 2.46885 141.41 2.49295C140.746 2.47824 140.088 2.62033 139.487 2.90795C138.934 3.18256 138.448 3.57803 138.065 4.0658C137.662 4.58542 137.361 5.17854 137.179 5.81295C136.97 6.51107 136.866 7.23725 136.871 7.9668C136.865 8.70109 136.972 9.43188 137.187 10.1331C137.38 10.7612 137.69 11.3459 138.101 11.8554C138.503 12.3338 139.002 12.7176 139.565 12.98C140.178 13.2646 140.847 13.4064 141.521 13.395C142.359 13.4291 143.185 13.1826 143.87 12.6937C144.474 12.2456 144.966 11.6599 145.305 10.9839L147.847 11.4321ZM151.287 0.554901H160.75V2.8208H153.78V6.69275H160.262V8.91715H153.792V13.0672H160.893V15.3455H151.287V0.554901Z" fill="#E9E9E9"/>
</svg>
